<?xml version="1.0" encoding="UTF-8"?>
<svg version="1.1" xmlns="http://www.w3.org/2000/svg" width="1024" height="1024">
<path d="M0 0 C5.55118119 3.89023541 10.17946463 8.79247336 14.93656111 13.59000254 C16.13214091 14.78096701 17.32859019 15.97105915 18.52582622 17.16035867 C21.79571511 20.41361822 25.05309492 23.67915143 28.30845904 26.94693637 C31.82817419 30.47572586 35.3594094 33.99295565 38.88915205 37.51170969 C45.79515661 44.39994993 52.69033051 51.29893366 59.58165208 58.20186028 C65.18375947 63.81300991 70.78976946 69.42023255 76.39857435 75.02468729 C77.19756651 75.82306652 77.99655868 76.62144575 78.81976272 77.44401829 C80.44303707 79.0660137 82.06632037 80.68800016 83.68961254 82.30997774 C98.90228672 97.51125223 114.1026879 112.72475145 129.29890671 127.94247338 C142.33153275 140.99296981 155.37461051 154.03294329 168.42539167 167.0652833 C183.58954446 182.20801862 198.7471724 197.3572365 213.89448142 212.5168221 C215.51043086 214.13404571 217.12638865 215.75126097 218.74235487 217.36846781 C219.53738859 218.16411863 220.33242231 218.95976945 221.15154795 219.7795309 C226.74817519 225.3796084 232.3494235 230.97503796 237.95248365 236.56867838 C244.78281769 243.38778136 251.60595293 250.21399116 258.42002645 257.04934415 C261.89525917 260.5350722 265.37358168 264.01755723 268.86068869 267.49140978 C272.05571748 270.67447784 275.24128838 273.8667092 278.4197183 277.0663496 C279.56812745 278.21920917 280.71988202 279.36874847 281.87537739 280.51450554 C293.98362452 292.52854218 302.13761062 304.51894901 302.24033308 322.02670908 C301.93874427 344.83855174 288.34248947 357.59395435 272.92392683 372.97592783 C271.90205827 373.99847263 270.88033796 375.02116561 269.85875654 376.04399729 C267.73504237 378.16917206 265.60956569 380.29256306 263.48276472 382.41464853 C260.77761429 385.11408802 258.07700001 387.81801411 255.37769175 390.52329397 C253.27495236 392.6296711 251.16980728 394.73363104 249.06395864 396.83689928 C248.0678275 397.83237078 247.07241788 398.82856489 246.07779455 399.82554293 C244.6818598 401.22405933 243.28231175 402.61896616 241.88266706 404.01376963 C240.69760824 405.19763506 240.69760824 405.19763506 239.48860884 406.40541697 C237.43996686 408.35719902 235.37444487 410.200994 233.22713327 412.03780603 C228.38308054 416.26751794 223.85885096 420.78475706 219.32825422 425.34544992 C218.40559165 426.27008034 217.48292907 427.19471075 216.53230703 428.14736027 C214.51901536 430.16499959 212.50734259 432.18423423 210.49692869 434.204741 C207.22465561 437.49343604 203.94884906 440.7785975 200.67264509 444.06337595 C195.91650117 448.83260785 191.16198583 453.60345815 186.40836668 458.37520647 C178.89010636 465.92174882 171.36600873 473.46245662 163.8408885 481.00215769 C161.26286338 483.58530642 158.68486351 486.16848036 156.10686255 488.75165319 C155.46270753 489.39709425 154.81855251 490.0425353 154.15487764 490.70753517 C146.83279439 498.04433326 139.51159803 505.38201594 132.19101667 512.7203126 C131.18791894 513.72583244 131.18791894 513.72583244 130.16455661 514.75166582 C119.32317115 525.61959807 108.48740989 536.49312362 97.65325476 547.36826307 C86.51612435 558.54716335 75.37131774 569.71837112 64.21980321 580.88292259 C57.34889225 587.76241628 50.48424935 594.64804562 43.62760018 601.54175436 C38.92764967 606.26602673 34.22038869 610.98293243 29.50736846 615.69416601 C26.79112396 618.40983422 24.07821434 621.12862416 21.37406492 623.85634089 C18.43733564 626.81850483 15.4851767 629.76480772 12.53137922 632.70995188 C11.26422581 633.99560552 11.26422581 633.99560552 9.97147334 635.30723196 C-1.14413329 646.32103182 -13.00106736 652.31056783 -28.69716692 652.46420908 C-36.52388507 652.38759726 -43.18920408 651.70802896 -50.19716692 647.96420908 C-51.04150286 647.55170908 -51.88583879 647.13920908 -52.75576067 646.71420908 C-64.2814816 640.53908919 -70.6377311 630.98157921 -75.19716692 618.96420908 C-78.85516402 606.45408491 -76.89250699 592.00127617 -71.01176631 580.68268216 C-66.97621597 573.52120126 -61.80170864 568.01469015 -55.98467302 562.27069712 C-54.94744119 561.23171774 -53.91109016 560.19185845 -52.87553775 559.15120518 C-50.04760552 556.31438516 -47.20744955 553.49009495 -44.36502576 550.66780543 C-41.29443148 547.61456159 -38.23548408 544.5496867 -35.17507219 541.48624277 C-29.87783431 536.18691231 -24.57334984 530.8949273 -19.26380587 525.6079278 C-11.5872117 517.96390742 -3.92174885 510.30880331 3.74108358 502.65099032 C16.17523736 490.22558075 28.61828866 477.80912133 41.06699324 465.39829111 C53.15632679 453.34570025 65.2414322 441.28889557 77.32089949 429.22641611 C78.06607204 428.48229445 78.81124459 427.73817279 79.57899813 426.97150199 C83.31746099 423.23825946 87.05584113 419.50493411 90.79418015 415.77156758 C121.78425103 384.82293153 152.78878811 353.88881909 183.80283308 322.96420908 C182.31562962 319.50635909 180.35794029 317.2740108 177.70038939 314.62684298 C176.40414338 313.32832401 176.40414338 313.32832401 175.08171058 312.00357234 C174.11711196 311.04744354 173.15242517 310.09140369 172.18765974 309.13544321 C171.16682601 308.11660137 170.14643796 307.09731282 169.12645841 306.07761586 C166.31942309 303.27387583 163.50620784 300.47640835 160.69199467 297.67987561 C157.65890997 294.66363316 154.63163445 291.6415709 151.6037364 288.62012339 C146.35420321 283.38319589 141.10124476 278.1497247 135.84617567 272.9183526 C128.23965084 265.34576744 120.64054165 257.76577437 113.04362103 250.18355544 C100.7070098 237.87084839 88.36740676 225.56114529 76.02451277 213.25473642 C75.28554517 212.51794907 74.54657757 211.78116172 73.78521702 211.02204747 C63.30529183 200.57332245 52.82238264 190.12759629 42.33825848 179.68308468 C41.60050364 178.94811648 40.86274881 178.21314827 40.10263777 177.4559083 C39.36578073 176.72183832 38.62892369 175.98776834 37.86973765 175.23145382 C25.57462231 162.98244162 13.28725787 150.72568812 1.00619626 138.46258557 C-6.5674382 130.90064684 -14.14751717 123.34528443 -21.73604444 115.79829045 C-26.93918972 110.62260659 -32.13505283 105.4396865 -37.32529327 100.25106184 C-40.31836765 97.25939257 -43.31460231 94.27108008 -46.3197484 91.29153299 C-49.07470743 88.55991813 -51.82014535 85.81908676 -54.5585337 83.07086332 C-55.546995 82.08210121 -56.53881476 81.0966818 -57.53442881 80.11512236 C-69.45449668 68.3545874 -76.53133279 56.40594266 -76.69716692 39.46420908 C-76.6205551 31.63749093 -75.9409868 24.97217192 -72.19716692 17.96420908 C-71.78466692 17.11987314 -71.37216692 16.2755372 -70.94716692 15.40561533 C-64.77204703 3.8798944 -55.21453705 -2.4763551 -43.19716692 -7.03579092 C-28.31503769 -11.38736927 -12.84908771 -7.8116711 0 0 Z " fill="#F3BA2F" transform="translate(163.19716691970825,142.03579092025757)"/>
<path d="M0 0 C0.67130457 -0.00235223 1.34260914 -0.00470446 2.03425628 -0.00712797 C4.29390576 -0.01380891 6.55349761 -0.01336002 8.81315613 -0.01294994 C10.44560267 -0.01624914 12.0780484 -0.01997483 13.71049309 -0.02409142 C18.20471436 -0.03411335 22.69892228 -0.03782854 27.19315314 -0.04048073 C32.0372625 -0.04438326 36.88136127 -0.0539617 41.72546387 -0.0626936 C53.42881233 -0.08246039 65.13216167 -0.0925249 76.83552265 -0.10142139 C82.34692758 -0.1058043 87.85833155 -0.11117113 93.36973572 -0.11641026 C111.69153138 -0.13342344 130.01332644 -0.14791727 148.33512878 -0.155159 C153.09025575 -0.15706889 157.8453827 -0.15898922 162.60050964 -0.16094494 C163.78237398 -0.16142868 164.96423831 -0.16191242 166.18191671 -0.16241082 C185.32420367 -0.1707098 204.4664281 -0.19604412 223.60868776 -0.22852562 C243.26204927 -0.26160242 262.91537901 -0.27960836 282.5687685 -0.28280324 C293.60320219 -0.28496785 304.63754474 -0.29370937 315.67195129 -0.31926441 C325.0702231 -0.34097994 334.46838163 -0.34901763 343.86667567 -0.33929763 C348.6600594 -0.33475531 353.45320943 -0.33663526 358.24656105 -0.35605907 C362.64006654 -0.37370845 367.03316818 -0.37267866 371.42667806 -0.35716178 C373.01088488 -0.35478839 374.5951198 -0.35909525 376.17928374 -0.37099043 C390.371194 -0.470901 401.19321829 2.0679479 412.3412323 11.13422108 C412.96642761 11.6111742 413.59162292 12.08812733 414.23576355 12.57953358 C421.40545197 18.7619737 427.69907239 30.89081983 428.53410339 40.30975819 C429.12977544 57.69796674 426.93527136 69.53028317 414.9662323 82.75922108 C402.85243485 93.71932353 390.90562587 96.89438483 374.74232483 96.76241016 C373.09726634 96.76746481 371.45221338 96.7747007 369.80717289 96.78390831 C365.31976682 96.80272665 360.83291045 96.79065618 356.34551883 96.77318537 C351.4933841 96.75975861 346.64132701 96.77526733 341.78919983 96.78700733 C332.29752353 96.80534795 322.80605364 96.79689589 313.31438385 96.77891911 C305.59881218 96.76487234 297.8832964 96.76100477 290.16771317 96.76436138 C289.06805671 96.76483882 287.96840026 96.76531627 286.83542088 96.76580818 C284.60125786 96.76683454 282.36709484 96.7678899 280.13293184 96.76897394 C260.39552073 96.77753356 240.65820906 96.76088908 220.92082214 96.73114491 C201.78080572 96.70230148 182.64093247 96.69522866 163.50090027 96.71063709 C142.64144731 96.7274068 121.78206228 96.7314262 100.92260754 96.71392673 C98.697445 96.7120824 96.47228246 96.71024767 94.2471199 96.70842266 C92.60502008 96.70705453 92.60502008 96.70705453 90.92974653 96.70565875 C83.22478328 96.70005876 75.51985326 96.70335546 67.81489182 96.70996761 C58.42337115 96.71770744 49.03199131 96.71092451 39.64049898 96.68579257 C34.85124544 96.6733136 30.06221098 96.66713167 25.27294922 96.67833424 C20.8847598 96.68840471 16.49700646 96.67985743 12.10886993 96.65675306 C10.52563511 96.65161113 8.94236094 96.65312414 7.35914348 96.66214771 C-7.47292345 96.7396193 -19.28684061 93.27974365 -30.6587677 83.39593983 C-41.67969 71.90761234 -44.15974476 58.40657757 -43.93611145 43.17328358 C-43.55533722 32.9776272 -39.71076054 25.16475004 -33.6587677 17.13422108 C-32.7925177 15.83484608 -32.7925177 15.83484608 -31.9087677 14.50922108 C-23.46143221 5.59258917 -12.24526787 0.01828223 0 0 Z " fill="#F3BA2F" transform="translate(507.6587677001953,792.8657789230347)"/>
</svg>
